<svg width="18" height="16" viewBox="0 0 18 16" fill="none" xmlns="http://www.w3.org/2000/svg">
<path d="M8.75211 3.45324L7.38773 2.05662L7.38716 2.05605C7.03926 1.70177 6.62426 1.42037 6.16639 1.22827C5.70853 1.03617 5.21697 0.937233 4.72044 0.937233C4.22391 0.937233 3.73235 1.03617 3.27449 1.22827C2.81666 1.42035 2.4017 1.70172 2.05382 2.05595C1.33987 2.78087 0.939683 3.75752 0.939683 4.775C0.939683 5.79259 1.33996 6.76935 2.05406 7.4943L2.05435 7.49459L8.52935 14.0508L8.75169 14.276L8.97403 14.0508L15.449 7.49459L15.4493 7.4943C16.1634 6.76935 16.5637 5.79259 16.5637 4.775C16.5637 3.75753 16.1635 2.78088 15.4496 2.05595C15.1019 1.70148 14.6869 1.41997 14.229 1.22791C13.7713 1.03591 13.2798 0.937178 12.7834 0.937502C12.7832 0.937502 12.7829 0.937502 12.7827 0.937502L12.7829 1.25C12.3258 1.24935 11.8732 1.34089 11.4522 1.51915C11.0313 1.69741 10.6506 1.95874 10.3329 2.2875L8.75211 3.45324ZM8.75211 3.45324L10.1082 2.07036C10.1085 2.07007 10.1088 2.06977 10.1091 2.06948L8.75211 3.45324ZM9.6674 1.61998L9.66857 1.61879C10.0746 1.20475 10.5591 0.875927 11.0939 0.651614C11.6286 0.427301 12.2028 0.31201 12.7827 0.312502L12.7829 0L12.7829 0.312502C13.3628 0.312661 13.9368 0.42827 14.4716 0.652588C15.0063 0.876897 15.491 1.20542 15.8975 1.61899C16.7264 2.46282 17.1909 3.59839 17.1909 4.78125C17.1909 5.96399 16.7265 7.09945 15.8978 7.94325C15.8977 7.94334 15.8976 7.94342 15.8975 7.94351L8.75169 15.1802L1.60587 7.94351C1.60577 7.94341 1.60567 7.94331 1.60557 7.94321C0.776839 7.09941 0.3125 5.96397 0.3125 4.78125C0.3125 3.59839 0.77695 2.46282 1.60587 1.61899C2.01242 1.20568 2.49716 0.877416 3.03186 0.653334C3.56661 0.429228 4.14063 0.313811 4.72044 0.313811C5.30025 0.313811 5.87427 0.429228 6.40902 0.653334C6.94378 0.877441 7.42857 1.20575 7.83514 1.61913L7.83598 1.61998L8.52973 2.31998L8.75169 2.54394L8.97365 2.31998L9.6674 1.61998Z" fill="#BDBDBD" stroke="#252B42" stroke-width="0.625"/>
</svg>
