<svg width="20" height="20" viewBox="0 0 20 20" fill="none" xmlns="http://www.w3.org/2000/svg">
<path d="M19.1567 7.41939C19.0991 7.24958 18.9929 7.10037 18.8515 6.99018C18.71 6.87999 18.5393 6.81365 18.3606 6.79934L13.1314 6.38383L10.8686 1.37482C10.7965 1.21349 10.6793 1.07646 10.5311 0.980278C10.3829 0.884093 10.21 0.832861 10.0333 0.832764C9.8566 0.832667 9.68365 0.883709 9.53532 0.979732C9.387 1.07575 9.26963 1.21265 9.19739 1.3739L6.93457 6.38383L1.70542 6.79934C1.52973 6.81326 1.36177 6.8775 1.22163 6.98438C1.08149 7.09125 0.975115 7.23624 0.915219 7.40199C0.855324 7.56774 0.84445 7.74724 0.883898 7.91901C0.923345 8.09078 1.01144 8.24755 1.13766 8.37056L5.00196 12.1376L3.63528 18.0556C3.59379 18.2348 3.60709 18.4222 3.67346 18.5937C3.73983 18.7652 3.85621 18.9128 4.0075 19.0173C4.15879 19.1218 4.33799 19.1785 4.52187 19.1799C4.70574 19.1813 4.88579 19.1274 5.03865 19.0252L10.033 15.6956L15.0273 19.0252C15.1836 19.1289 15.3678 19.1823 15.5553 19.1782C15.7428 19.1741 15.9246 19.1126 16.0761 19.0022C16.2276 18.8917 16.3417 18.7374 16.403 18.5602C16.4642 18.3829 16.4697 18.1912 16.4188 18.0107L14.7412 12.1404L18.9017 8.39625C19.1741 8.15043 19.2741 7.76702 19.1567 7.41939Z" fill="#F3CD03"/>
</svg>
